# xmcd
#
# Track frame offsets: 
#        150
#        17313
#        34095
#        50007
#        65810
#        81256
#        94051
#        112124
#        128183
#        145838
#
# Disc length: 2158 seconds
#
# Revision: 0
# Processed by: cddbd v1.5.2PL0 Copyright (c) Steve Scherf et al.
# Submitted via: ExactAudioCopy v0.99pb5
#
DISCID=89086c0a
DTITLE=ฝน ธนสุนทร - ขอใช้สิทธิ์
DYEAR=2004
DGENRE=Country
TTITLE0=ขอใช้สิทธิ์
TTITLE1=ร้องไห้ใต้โคนคูน
TTITLE2=อย่าห่วงฉันเลย
TTITLE3=เตียงว่าง
TTITLE4=นี่หรือคือรัก
TTITLE5=เทพบุตรในดวงใจ
TTITLE6=วันรักวันรอ
TTITLE7=คิดได้ที่ขั้นห้า
TTITLE8=ฉันมิใช่นางเอก
TTITLE9=ไม่นอกสายตา
EXTD=
EXTT0=
EXTT1=
EXTT2=
EXTT3=
EXTT4=
EXTT5=
EXTT6=
EXTT7=
EXTT8=
EXTT9=
PLAYORDER=
